<?xml version="1.0" encoding="UTF-8"?>
<svg version="1.1" xmlns="http://www.w3.org/2000/svg" width="256" height="256">
<path d="M0 0 C1.35158203 1.12341797 1.35158203 1.12341797 2.73046875 2.26953125 C3.57996094 2.96691406 4.42945313 3.66429688 5.3046875 4.3828125 C26.95992822 22.97844307 40.13346275 49.23045316 43.48046875 77.51953125 C43.58611158 79.10153267 43.66884178 80.68520458 43.73046875 82.26953125 C43.78203125 83.17832031 43.83359375 84.08710938 43.88671875 85.0234375 C44.79816824 114.7594771 34.20681922 143.06103023 14.046875 164.82421875 C13.28246094 165.63117188 12.51804688 166.438125 11.73046875 167.26953125 C10.99699219 168.05585938 10.26351562 168.8421875 9.5078125 169.65234375 C4.37321224 174.99522586 -1.01977121 179.29909546 -7.26953125 183.26953125 C-8.20796875 183.86765625 -9.14640625 184.46578125 -10.11328125 185.08203125 C-28.58855879 196.36167438 -28.58855879 196.36167438 -38.26953125 195.26953125 C-39.92176819 193.99734497 -39.92176819 193.99734497 -41.26953125 192.26953125 C-41.55323802 189.22292237 -41.6626164 186.37068427 -41.640625 183.32421875 C-41.65802119 181.50650867 -41.6756054 179.68880037 -41.69335938 177.87109375 C-41.70339098 175.01428717 -41.70703911 172.15760463 -41.70532227 169.30078125 C-41.70892043 166.53739011 -41.73638067 163.77494055 -41.765625 161.01171875 C-41.75744247 160.17075653 -41.74925995 159.32979431 -41.74082947 158.46334839 C-41.81773945 152.25197035 -43.47337485 147.76652302 -46.26953125 142.26953125 C-46.94787712 140.60758387 -47.621527 138.94354222 -48.26953125 137.26953125 C-46.49449219 136.90601563 -46.49449219 136.90601563 -44.68359375 136.53515625 C-29.629616 133.37906249 -15.9685878 129.95920506 -6.6171875 116.6484375 C1.21563356 102.82180554 3.01696433 86.22463673 0.046875 70.6953125 C-1.53211669 66.10247775 -3.77032301 62.45854442 -6.58203125 58.51953125 C-9.28503481 54.66487204 -9.28503481 54.66487204 -9.14453125 51.08203125 C-8.85578125 49.82390625 -8.56703125 48.56578125 -8.26953125 47.26953125 C-7.87408456 39.2930822 -8.14346952 31.976505 -10.26953125 24.26953125 C-18.23540655 25.55763023 -26.01359492 27.39032082 -32.78125 31.96875 C-36.90160704 34.70949571 -39.70478052 36.39773193 -44.75 35.984375 C-46.7015633 35.55666235 -48.65309296 35.12726368 -50.59448242 34.65551758 C-56.50278181 33.26496666 -62.14208231 32.89505468 -68.20703125 32.89453125 C-69.14248779 32.89380615 -70.07794434 32.89308105 -71.04174805 32.89233398 C-77.06390562 32.98913641 -82.54677111 33.83928623 -88.39453125 35.20703125 C-94.08183032 36.48864807 -97.53690958 36.29779719 -102.64453125 33.20703125 C-103.58425781 32.54316406 -104.52398437 31.87929687 -105.4921875 31.1953125 C-111.62466605 26.9431157 -118.8902787 24.92546481 -126.26953125 24.26953125 C-128.72265543 33.00878614 -129.49039888 42.5300501 -127.58984375 51.46484375 C-127.26953125 54.26953125 -127.26953125 54.26953125 -128.34375 56.4375 C-128.87613281 57.10394531 -129.40851563 57.77039063 -129.95703125 58.45703125 C-138.84222756 71.04957054 -138.69721998 85.08400305 -136.796875 99.97265625 C-134.32283878 111.2910016 -128.7955332 120.59694002 -119.26953125 127.26953125 C-109.63704973 133.13162236 -99.41033519 136.0035308 -88.26953125 137.26953125 C-88.55699219 137.82511719 -88.84445313 138.38070312 -89.140625 138.953125 C-90.32182125 141.37682526 -91.33795447 143.82605062 -92.33203125 146.33203125 C-92.67363281 147.18925781 -93.01523438 148.04648438 -93.3671875 148.9296875 C-94.04706603 150.69266256 -94.67201005 152.47696764 -95.26953125 154.26953125 C-101.75152389 157.00637259 -109.82035724 157.56098612 -116.59765625 155.59375 C-118.51953125 154.76953125 -118.51953125 154.76953125 -121.26953125 153.26953125 C-121.59953125 154.25953125 -121.92953125 155.24953125 -122.26953125 156.26953125 C-124.20703125 155.95703125 -124.20703125 155.95703125 -126.26953125 155.26953125 C-126.59953125 154.27953125 -126.92953125 153.28953125 -127.26953125 152.26953125 C-126.27953125 151.60953125 -125.28953125 150.94953125 -124.26953125 150.26953125 C-125.25953125 149.27953125 -125.25953125 149.27953125 -126.26953125 148.26953125 C-128.87233693 148.58994522 -128.87233693 148.58994522 -131.26953125 149.26953125 C-131.59953125 147.94953125 -131.92953125 146.62953125 -132.26953125 145.26953125 C-131.27953125 144.93953125 -130.28953125 144.60953125 -129.26953125 144.26953125 C-129.92953125 143.27953125 -130.58953125 142.28953125 -131.26953125 141.26953125 C-131.59953125 141.92953125 -131.92953125 142.58953125 -132.26953125 143.26953125 C-133.58953125 142.93953125 -134.90953125 142.60953125 -136.26953125 142.26953125 C-136.26953125 141.27953125 -136.26953125 140.28953125 -136.26953125 139.26953125 C-135.60953125 138.93953125 -134.94953125 138.60953125 -134.26953125 138.26953125 C-135.25953125 137.60953125 -136.24953125 136.94953125 -137.26953125 136.26953125 C-137.26953125 136.92953125 -137.26953125 137.58953125 -137.26953125 138.26953125 C-138.58953125 137.93953125 -139.90953125 137.60953125 -141.26953125 137.26953125 C-141.26953125 136.27953125 -141.26953125 135.28953125 -141.26953125 134.26953125 C-143.90953125 133.93953125 -146.54953125 133.60953125 -149.26953125 133.26953125 C-148.12239487 136.71094039 -147.5009299 136.99307727 -144.58203125 138.89453125 C-139.18475615 142.7979177 -136.05395045 147.74719237 -133.0703125 153.63671875 C-129.6645758 160.35767424 -125.59717132 164.35550753 -118.6640625 167.421875 C-114.03232019 168.57847809 -109.64632101 168.48265289 -104.89453125 168.39453125 C-103.50427734 168.38099609 -103.50427734 168.38099609 -102.0859375 168.3671875 C-99.81353048 168.34376062 -97.54166945 168.31095873 -95.26953125 168.26953125 C-95.18256948 172.20689248 -95.1291529 176.14400753 -95.08203125 180.08203125 C-95.05689453 181.20158203 -95.03175781 182.32113281 -95.00585938 183.47460938 C-94.99619141 184.54775391 -94.98652344 185.62089844 -94.9765625 186.7265625 C-94.96085205 187.7163208 -94.9451416 188.7060791 -94.92895508 189.72583008 C-95.26953125 192.26953125 -95.26953125 192.26953125 -96.54956055 194.11206055 C-99.14738754 195.86029302 -101.49635688 195.42059664 -104.484375 194.96875 C-118.98361238 191.328689 -130.96341062 182.65800598 -142.26953125 173.26953125 C-142.83414063 172.82867187 -143.39875 172.3878125 -143.98046875 171.93359375 C-164.5605325 155.70909905 -176.8117442 126.99419473 -179.89453125 101.58203125 C-182.49408744 70.57991664 -174.04905827 40.32564151 -153.94140625 16.34375 C-153.05457889 15.31572211 -152.16421669 14.29072764 -151.26953125 13.26953125 C-150.5528125 12.45097656 -149.83609375 11.63242187 -149.09765625 10.7890625 C-110.99193563 -29.68035884 -43.46560577 -34.43226799 0 0 Z " fill="#000000" transform="translate(196.26953125,45.73046875)"/>
<path d="M0 0 C1.65 0 3.3 0 5 0 C5 1.32 5 2.64 5 4 C3.35 4 1.7 4 0 4 C0 2.68 0 1.36 0 0 Z " fill="#000000" transform="translate(95,202)"/>
<path d="M0 0 C1.65 0.33 3.3 0.66 5 1 C4.67 1.99 4.34 2.98 4 4 C2.35 4 0.7 4 -1 4 C-0.67 2.68 -0.34 1.36 0 0 Z " fill="#000000" transform="translate(87,203)"/>
<path d="M0 0 C1.65 0 3.3 0 5 0 C5 1.32 5 2.64 5 4 C3.35 3.67 1.7 3.34 0 3 C0 2.01 0 1.02 0 0 Z " fill="#000000" transform="translate(77,202)"/>
</svg>
